# xmcd
#
# Track frame offsets:
#	150
#	16652
#	30425
#	42532
#	56920
#	72792
#	89097
#	105182
#	121342
#	137940
#	152022
#
# Disc length: 2194 seconds
#
# Revision: 1
# Processed by: cddbd v1.5.1PL0 Copyright (c) Steve Scherf et al.
# Submitted via: audiograbber 1.83.01
#
DISCID=8d08900b
DTITLE=Tony BRANTLEY - Tony Brantley
DYEAR=2003
DGENRE=Country
TTITLE0=Brown eyed girl
TTITLE1=That's enough
TTITLE2=The flower picked me
TTITLE3=Say you love me
TTITLE4=Slow dance
TTITLE5=Rock me gently
TTITLE6=Your love got in the way
TTITLE7=Lead a horse to water
TTITLE8=Daddy won't you play with me
TTITLE9=Live a little more
TTITLE10=Gimme some lovin'
EXTD=
EXTT0=
EXTT1=
EXTT2=
EXTT3=
EXTT4=
EXTT5=
EXTT6=
EXTT7=
EXTT8=
EXTT9=
EXTT10=
PLAYORDER=
